SplineFontDB: 3.0
FontName: OpenDinSchriftenEngshrift
FullName: OpenDinSchriftenEngshrift
FamilyName: OpenDinSchriftenEngshrift
Weight: Medium
Copyright: Based on master drawing of Prussian Railways typeface (Paulo Silva, jun'09)
UComments: "2008-1-22: Created." 
Version: 0906181649
ItalicAngle: 0
UnderlinePosition: -100
UnderlineWidth: 50
Ascent: 800
Descent: 200
LayerCount: 2
Layer: 0 0 "Back" 
Layer: 1 0 "Fore" 
XUID: [1021 51 2121046008 13429205]
FSType: 0
OS2Version: 0
OS2_WeightWidthSlopeOnly: 0
OS2_UseTypoMetrics: 1
CreationTime: 1201029290
ModificationTime: 1245340366
OS2TypoAscent: 0
OS2TypoAOffset: 1
OS2TypoDescent: 0
OS2TypoDOffset: 1
OS2TypoLinegap: 90
OS2WinAscent: 0
OS2WinAOffset: 1
OS2WinDescent: 0
OS2WinDOffset: 1
HheadAscent: 0
HheadAOffset: 1
HheadDescent: 0
HheadDOffset: 1
Lookup: 258 0 0 "kerning"  {"kerning-1"  } []
DEI: 0
Encoding: UnicodeBmp
Compacted: 1
UnicodeInterp: none
NameList: Adobe Glyph List
DisplaySize: -96
AntiAlias: 1
FitToEm: 1
WinInfo: 0 9 6
BeginChars: 65536 182

StartChar: A
Encoding: 65 65 0
Width: 500
VWidth: 0
Flags: W
HStem: 0 21G<49.8438 154.128 345.56 449.844> 200 100<214.125 285.562> 680 20G<195.558 304.13>
LayerCount: 2
Fore
SplineSet
249.844 466.688 m 25
 214.125 300 l 25
 285.562 300 l 25
 249.844 466.688 l 25
49.8438 0 m 25
 199.844 700 l 25
 299.844 700 l 25
 449.844 0 l 25
 349.844 0 l 25
 307 200 l 25
 192.688 200 l 25
 149.844 0 l 25
 49.8438 0 l 25
EndSplineSet
Validated: 1
EndChar

StartChar: J
Encoding: 74 74 1
Width: 300
VWidth: 0
Flags: W
HStem: 0 100<50 140.775> 680 20G<150 250>
VStem: 150 100<109.225 700>
LayerCount: 2
Fore
SplineSet
150 700 m 0,0,-1
150 150 m 2,1,-1
 150 700 l 1,2,-1
 250 700 l 1,3,-1
 250 150 l 2,4,-1
 250 67.1572 182.843 0 100 0 c 2,7,-1
 50 0 l 1,8,-1
 50 100 l 1,9,-1
 100 100 l 2,10,-1
 127.614 100 150 122.386 150 150 c 2,1,-1
EndSplineSet
Validated: 1
EndChar

StartChar: G
Encoding: 71 71 2
Width: 400
VWidth: 0
Flags: W
HStem: 0 100<159.08 240.92> 300 100<200 250> 600 100<159.08 240.92>
VStem: 50 100<109.225 590.775> 200 150<300 400> 250 100<109.225 300 550 590.775>
CounterMasks: 1 e0
LayerCount: 2
Fore
SplineSet
200 700 m 0xf8
 282.843 700 350 632.843 350 550 c 1
 250 550 l 1xf4
 250 577.614 227.613 600 200 600 c 0
 172.387 600 150 577.614 150 550 c 2
 150 150 l 2
 150 122.386 172.387 100 200 100 c 0xf8
 227.613 100 250 122.386 250 150 c 2
 250 300 l 1xf4
 200 300 l 1
 200 400 l 1xf8
 250 400 l 1xf4
 350 400 l 1xf8
 350 150 l 2xf4
 350 67.1572 282.843 0 200 0 c 0
 117.157 0 50 67.1572 50 150 c 2
 50 550 l 2
 50 632.843 117.157 700 200 700 c 0xf8
EndSplineSet
Validated: 1
EndChar

StartChar: O
Encoding: 79 79 3
Width: 400
VWidth: 0
Flags: W
HStem: 0 100<159.08 240.92> 600 100<159.08 240.92>
VStem: 50 100<109.225 590.775> 250 100<109.225 590.775>
LayerCount: 2
Fore
SplineSet
200 700 m 0
 282.843 700 350 632.843 350 550 c 2
 350 150 l 2
 350 67.1572 282.843 0 200 0 c 0
 117.157 0 50 67.1572 50 150 c 2
 50 550 l 2
 50 632.843 117.157 700 200 700 c 0
200 600 m 0
 172.386 600 150 577.614 150 550 c 2
 150 150 l 2
 150 122.386 172.386 100 200 100 c 0
 227.614 100 250 122.386 250 150 c 2
 250 550 l 2
 250 577.614 227.614 600 200 600 c 0
EndSplineSet
Validated: 1
EndChar

StartChar: Q
Encoding: 81 81 4
Width: 450
VWidth: 0
Flags: W
HStem: 0 100<159.08 240.327 360.122 400> 600 100<159.08 240.92>
VStem: 50 100<109.225 590.775> 250 100<109.225 590.775>
LayerCount: 2
Fore
SplineSet
200 700 m 0
 282.843 700 350 632.843 350 550 c 2
 350 150 l 2
 350 122.386 372.386 100 400 100 c 1
 400 0 l 1
 361.572 0 326.54 14.4561 300 38.2188 c 1
 273.46 14.4561 238.428 0 200 0 c 0
 117.157 0 50 67.1572 50 150 c 2
 50 550 l 2
 50 632.843 117.157 700 200 700 c 0
200 600 m 0
 172.386 600 150 577.614 150 550 c 2
 150 150 l 2
 150 122.386 172.386 100 200 100 c 0
 227.614 100 250 122.386 250 150 c 2
 250 550 l 2
 250 577.614 227.614 600 200 600 c 0
EndSplineSet
Validated: 1
EndChar

StartChar: S
Encoding: 83 83 5
Width: 400
VWidth: 0
Flags: W
HStem: 0 100<159.08 240.92> 300 100<159.225 240.775> 500 21G<250 350> 600 100<159.08 240.92>
VStem: 50 100<109.225 200 409.225 590.775> 250 100<109.225 290.775 500 590.775>
LayerCount: 2
Fore
SplineSet
200 700 m 0
 282.843 700 350 632.843 350 550 c 2
 350 500 l 1
 250 500 l 1
 250 550 l 2
 250 577.614 227.614 600 200 600 c 0
 172.386 600 150 577.614 150 550 c 2
 150 450 l 2
 150 422.386 172.386 400 200 400 c 0
 282.843 400 350 332.843 350 250 c 2
 350 150 l 2
 350 67.1572 282.843 0 200 0 c 0
 117.157 0 50 67.1572 50 150 c 2
 50 200 l 1
 150 200 l 1
 150 150 l 2
 150 122.386 172.386 100 200 100 c 0
 227.614 100 250 122.386 250 150 c 2
 250 250 l 2
 250 277.614 227.614 300 200 300 c 0
 117.157 300 50 367.157 50 450 c 2
 50 550 l 2
 50 632.843 117.157 700 200 700 c 0
EndSplineSet
Validated: 1
EndChar

StartChar: U
Encoding: 85 85 6
Width: 400
VWidth: 0
Flags: W
HStem: 0 100<159.08 240.92> 680 20G<50 150 250 350>
VStem: 50 100<109.225 700> 250 100<109.225 700>
LayerCount: 2
Fore
SplineSet
50 700 m 0,0,-1
50 150 m 2,1,-1
 50 700 l 1,2,-1
 150 700 l 1,3,-1
 150 150 l 2,4,-1
 150 122.386 172.386 100 200 100 c 0,7,-1
 227.614 100 250 122.386 250 150 c 2,10,-1
 250 700 l 1,11,-1
 350 700 l 1,12,-1
 350 150 l 2,13,-1
 350 67.1572 282.843 0 200 0 c 0,16,-1
 117.157 0 50 67.1572 50 150 c 2,1,-1
EndSplineSet
Validated: 1
EndChar

StartChar: c
Encoding: 99 99 7
Width: 400
VWidth: 0
Flags: W
HStem: 0 100<159.08 240.92> 400 100<159.08 240.92>
VStem: 50 100<109.225 390.775> 250 100<109.225 150 350 390.775>
LayerCount: 2
Fore
SplineSet
200 500 m 0
 282.843 500 350 432.843 350 350 c 1
 250 350 l 1
 250 377.614 227.614 400 200 400 c 0
 172.386 400 150 377.614 150 350 c 2
 150 150 l 2
 150 122.386 172.386 100 200 100 c 0
 227.614 100 250 122.386 250 150 c 1
 350 150 l 1
 350 67.1572 282.843 0 200 0 c 0
 117.157 0 50 67.1572 50 150 c 2
 50 350 l 2
 50 432.843 117.157 500 200 500 c 0
EndSplineSet
Validated: 1
EndChar

StartChar: f
Encoding: 102 102 8
Width: 300
VWidth: 0
Flags: W
HStem: 0 21G<100 200> 400 100<50 100 200 250> 600 100<209.225 250>
VStem: 100 100<0 400 500 590.775>
LayerCount: 2
Fore
SplineSet
250 700 m 1
 250 600 l 1
 222.387 600 200 577.614 200 550 c 2
 200 500 l 1
 250 500 l 1
 250 400 l 1
 200 400 l 1
 200 0 l 1
 100 0 l 1
 100 400 l 1
 50 400 l 1
 50 500 l 1
 100 500 l 1
 100 550 l 2
 100 632.843 167.156 700 250 700 c 1
EndSplineSet
Validated: 1
EndChar

StartChar: g
Encoding: 103 103 9
Width: 400
VWidth: 0
Flags: W
HStem: -200 100<159.08 240.92> 0 100<122.386 212.117> 400 100<126.998 212.117>
VStem: 50 100<-90.7753 -50 109.225 390.775> 250 100<-90.7753 100 109.225 150 150 390.775 400 500>
LayerCount: 2
Fore
SplineSet
150 500 m 0
 205.229 500 250 455.229 250 400 c 1
 250 500 l 1
 350 500 l 1
 350 -50 l 2
 350 -132.843 282.844 -200 200 -200 c 0
 117.156 -200 50 -132.843 50 -50 c 1
 150 -50 l 1
 150 -77.6143 172.387 -100 200 -100 c 0
 227.613 -100 250 -77.6143 250 -50 c 2
 250 100 l 1
 250 44.7715 205.229 0 150 0 c 0
 94.7715 0 50 44.7715 50 100 c 2
 50 150 l 1
 50 350 l 1
 50 400 l 2
 50 455.229 94.7715 500 150 500 c 0
200 400 m 0
 172.387 400 150 377.614 150 350 c 2
 150 150 l 2
 150 122.386 172.387 100 200 100 c 0
 227.613 100 250 122.386 250 150 c 2
 250 350 l 2
 250 377.614 227.613 400 200 400 c 0
EndSplineSet
Validated: 1
EndChar

StartChar: l
Encoding: 108 108 10
Width: 250
VWidth: 0
Flags: W
HStem: 0 100<159.225 200> 680 20G<50 150>
VStem: 50 100<109.225 700>
LayerCount: 2
Fore
SplineSet
50 700 m 0,0,-1
50 150 m 2,1,-1
 50 700 l 1,2,-1
 150 700 l 1,3,-1
 150 150 l 2,4,-1
 150 122.386 172.387 100 200 100 c 1,7,-1
 200 0 l 1,8,-1
 117.156 0 50 67.1572 50 150 c 2,1,-1
EndSplineSet
Validated: 1
EndChar

StartChar: o
Encoding: 111 111 11
Width: 400
VWidth: 0
Flags: W
HStem: 0 100<159.08 240.92> 400 100<159.08 240.92>
VStem: 50 100<109.225 390.775> 250 100<109.225 390.775>
LayerCount: 2
Fore
SplineSet
200 500 m 0
 282.844 500 350 432.843 350 350 c 2
 350 150 l 2
 350 67.1572 282.844 0 200 0 c 0
 117.156 0 50 67.1572 50 150 c 2
 50 350 l 2
 50 432.843 117.156 500 200 500 c 0
200 400 m 0
 172.387 400 150 377.614 150 350 c 2
 150 150 l 2
 150 122.386 172.387 100 200 100 c 0
 227.613 100 250 122.386 250 150 c 2
 250 350 l 2
 250 377.614 227.613 400 200 400 c 0
EndSplineSet
Validated: 1
EndChar

StartChar: q
Encoding: 113 113 12
Width: 400
VWidth: 0
Flags: W
HStem: -200 21G<250 350> 0 100<122.386 212.117> 400 100<122.386 212.117>
VStem: 50 100<109.225 390.775> 250 100<-200 100 109.225 390.775 400 500>
LayerCount: 2
Fore
SplineSet
150 500 m 0
 205.229 500 250 455.229 250 400 c 1
 250 500 l 1
 350 500 l 1
 350 -200 l 1
 250 -200 l 1
 250 100 l 1
 250 44.7715 205.229 0 150 0 c 0
 94.7715 0 50 44.7715 50 100 c 2
 50 150 l 1
 50 350 l 1
 50 400 l 2
 50 455.229 94.7715 500 150 500 c 0
200 400 m 0
 172.387 400 150 377.614 150 350 c 2
 150 150 l 2
 150 122.386 172.387 100 200 100 c 0
 227.613 100 250 122.386 250 150 c 2
 250 350 l 2
 250 377.614 227.613 400 200 400 c 0
EndSplineSet
Validated: 1
EndChar

StartChar: s
Encoding: 115 115 13
Width: 400
VWidth: 0
Flags: W
HStem: 0 100<159.08 240.92> 200 100<159.225 240.775> 400 100<159.08 240.92>
VStem: 50 100<109.225 150 309.08 390.92> 250 100<109.08 190.92 350 390.775>
CounterMasks: 1 e0
LayerCount: 2
Fore
SplineSet
200 500 m 0
 282.844 500 350 432.843 350 350 c 1
 250 350 l 1
 250 377.614 227.613 400 200 400 c 0
 172.387 400 150 377.614 150 350 c 0
 150 322.386 172.387 300 200 300 c 0
 282.844 300 350 232.843 350 150 c 0
 350 67.1572 282.844 0 200 0 c 0
 117.156 0 50 67.1572 50 150 c 1
 150 150 l 1
 150 122.386 172.387 100 200 100 c 0
 227.613 100 250 122.386 250 150 c 0
 250 177.614 227.613 200 200 200 c 0
 117.156 200 50 267.157 50 350 c 0
 50 432.843 117.156 500 200 500 c 0
EndSplineSet
Validated: 1
EndChar

StartChar: y
Encoding: 121 121 14
Width: 400
VWidth: 0
Flags: W
HStem: -200 100<100 140.775> 480 20G<50 153.636 246.364 350>
VStem: 150 100<-90.7753 -11.5>
LayerCount: 2
Fore
SplineSet
50 500 m 0,0,-1
150 -50 m 1,1,-1
 50 500 l 1,2,-1
 150 500 l 1,3,-1
 200 225 l 1,4,-1
 250 500 l 1,5,-1
 350 500 l 1,6,-1
 250 -50 l 1,7,-1
 250 -132.843 182.844 -200 100 -200 c 1,10,-1
 100 -100 l 1,11,-1
 127.613 -100 150 -77.6143 150 -50 c 1,1,-1
EndSplineSet
Validated: 1
EndChar

StartChar: germandbls
Encoding: 223 223 15
Width: 450
VWidth: 0
Flags: W
HStem: 0 100<250 290.775> 400 100<250 290.775> 600 100<159.225 290.775>
VStem: 50 100<0 590.775> 300 100<109.225 389.878 509.673 590.92>
LayerCount: 2
Fore
SplineSet
200 700 m 2
 250 700 l 2
 332.844 700 400 632.843 400 550 c 0
 400 511.572 385.545 476.54 361.781 450 c 1
 385.545 423.46 400 388.428 400 350 c 2
 400 150 l 2
 400 67.1572 332.844 0 250 0 c 1
 250 100 l 1
 277.613 100 300 122.386 300 150 c 2
 300 350 l 2
 300 377.614 277.613 400 250 400 c 1
 250 500 l 1
 277.613 500 300 522.386 300 550 c 0
 300 577.614 277.613 600 250 600 c 2
 200 600 l 2
 172.387 600 150 577.614 150 550 c 2
 150 0 l 1
 50 0 l 1
 50 550 l 2
 50 632.843 117.156 700 200 700 c 2
EndSplineSet
Validated: 1
EndChar

StartChar: C
Encoding: 67 67 16
Width: 400
VWidth: 0
Flags: W
HStem: 0 100<159.08 240.92> 600 100<159.08 240.92>
VStem: 50 100<109.225 590.775> 250 100<109.225 150 550 590.775>
LayerCount: 2
Fore
SplineSet
200 700 m 0
 282.843 700 350 632.843 350 550 c 1
 250 550 l 1
 250 577.614 227.613 600 200 600 c 0
 172.387 600 150 577.614 150 550 c 2
 150 150 l 2
 150 122.386 172.387 100 200 100 c 0
 227.613 100 250 122.386 250 150 c 1
 350 150 l 1
 350 67.1572 282.843 0 200 0 c 0
 117.157 0 50 67.1572 50 150 c 2
 50 550 l 2
 50 632.843 117.157 700 200 700 c 0
EndSplineSet
Validated: 1
EndChar

StartChar: nine
Encoding: 57 57 17
Width: 400
VWidth: 0
Flags: W
HStem: 0 100<159.08 240.92> 250 100<159.08 240.928> 600 100<159.08 240.92>
VStem: 50 100<109.225 150 359.225 590.775> 250 100<109.225 258.531 359.225 400 400 590.775>
LayerCount: 2
Fore
SplineSet
200 700 m 0
 282.843 700 350 632.843 350 550 c 2
 350 150 l 2
 350 67.1572 282.843 0 200 0 c 0
 117.157 0 50 67.1572 50 150 c 1
 150 150 l 1
 150 122.386 172.387 100 200 100 c 0
 227.613 100 250 122.386 250 150 c 2
 250 258.531 l 1
 234.361 253.003 217.533 250 200 250 c 0
 117.157 250 50 317.157 50 400 c 2
 50 550 l 2
 50 632.843 117.157 700 200 700 c 0
200 600 m 0
 172.387 600 150 577.614 150 550 c 2
 150 400 l 2
 150 372.386 172.387 350 200 350 c 0
 227.613 350 250 372.386 250 400 c 2
 250 550 l 2
 250 577.614 227.613 600 200 600 c 0
EndSplineSet
Validated: 1
EndChar

StartChar: eight
Encoding: 56 56 18
Width: 400
VWidth: 0
Flags: W
HStem: 0 100<159.08 240.92> 300 100<159.225 240.775> 600 100<159.08 240.92>
VStem: 50 100<109.225 289.878 410.122 590.775> 250 100<109.225 289.878 410.122 590.775>
CounterMasks: 1 e0
LayerCount: 2
Fore
SplineSet
200 700 m 0
 282.843 700 350 632.843 350 550 c 2
 350 450 l 2
 350 411.572 335.544 376.54 311.781 350 c 1
 335.544 323.46 350 288.428 350 250 c 2
 350 150 l 2
 350 67.1572 282.843 0 200 0 c 0
 117.157 0 50 67.1572 50 150 c 2
 50 250 l 2
 50 288.428 64.4561 323.46 88.2188 350 c 1
 64.4561 376.54 50 411.572 50 450 c 2
 50 550 l 2
 50 632.843 117.157 700 200 700 c 0
200 600 m 0
 172.387 600 150 577.614 150 550 c 2
 150 450 l 2
 150 422.386 172.387 400 200 400 c 0
 227.613 400 250 422.386 250 450 c 2
 250 550 l 2
 250 577.614 227.613 600 200 600 c 0
200 300 m 0
 172.387 300 150 277.614 150 250 c 2
 150 150 l 2
 150 122.386 172.387 100 200 100 c 0
 227.613 100 250 122.386 250 150 c 2
 250 250 l 2
 250 277.614 227.613 300 200 300 c 0
EndSplineSet
Validated: 1
EndChar

StartChar: six
Encoding: 54 54 19
Width: 400
VWidth: 0
Flags: W
HStem: 0 100<159.08 240.92> 350 100<159.072 240.92> 600 100<159.08 240.92>
VStem: 50 100<109.225 340.775 441.469 590.775> 250 100<109.225 340.775 550 590.775>
LayerCount: 2
Fore
SplineSet
200 700 m 0
 282.843 700 350 632.843 350 550 c 1
 250 550 l 1
 250 577.614 227.614 600 200 600 c 0
 172.386 600 150 577.614 150 550 c 2
 150 441.469 l 1
 165.639 446.997 182.467 450 200 450 c 0
 282.843 450 350 382.843 350 300 c 2
 350 150 l 2
 350 67.1572 282.843 0 200 0 c 0
 117.157 0 50 67.1572 50 150 c 2
 50 550 l 2
 50 632.843 117.157 700 200 700 c 0
200 350 m 0
 172.386 350 150 327.614 150 300 c 2
 150 150 l 2
 150 122.386 172.386 100 200 100 c 0
 227.614 100 250 122.386 250 150 c 2
 250 300 l 2
 250 327.614 227.614 350 200 350 c 0
EndSplineSet
Validated: 1
EndChar

StartChar: three
Encoding: 51 51 20
Width: 400
VWidth: 0
Flags: W
HStem: 0 100<159.08 240.92> 300 100<200 240.775> 600 100<159.08 240.92>
VStem: 50 100<109.225 150 550 590.775> 250 100<109.225 289.878 410.122 590.775>
CounterMasks: 1 e0
LayerCount: 2
Fore
SplineSet
200 700 m 0
 282.843 700 350 632.843 350 550 c 2
 350 450 l 2
 350 411.572 335.544 376.54 311.781 350 c 1
 335.544 323.46 350 288.428 350 250 c 2
 350 150 l 2
 350 67.1572 282.843 0 200 0 c 0
 117.157 0 50 67.1572 50 150 c 1
 150 150 l 1
 150 122.386 172.386 100 200 100 c 0
 227.614 100 250 122.386 250 150 c 2
 250 250 l 2
 250 277.614 227.614 300 200 300 c 1
 200 400 l 1
 227.614 400 250 422.386 250 450 c 2
 250 550 l 2
 250 577.614 227.614 600 200 600 c 0
 172.386 600 150 577.614 150 550 c 1
 50 550 l 1
 50 632.843 117.157 700 200 700 c 0
EndSplineSet
Validated: 1
EndChar

StartChar: two
Encoding: 50 50 21
Width: 400
VWidth: 0
Flags: W
HStem: 0 100<150 350> 600 100<159.08 240.92>
VStem: 50 100<550 590.775> 250 100<500 590.775>
LayerCount: 2
Fore
SplineSet
200 700 m 0
 282.843 700 350 632.843 350 550 c 2
 350 500 l 1
 150 100 l 1
 350 100 l 1
 350 0 l 1
 50 0 l 1
 50 100 l 1
 250 500 l 1
 250 550 l 2
 250 577.614 227.614 600 200 600 c 0
 172.386 600 150 577.614 150 550 c 1
 50 550 l 1
 50 632.843 117.157 700 200 700 c 0
EndSplineSet
Validated: 1
EndChar

StartChar: zero
Encoding: 48 48 22
Width: 400
VWidth: 0
Flags: W
HStem: 0 100<159.08 240.92> 600 100<159.08 240.92>
VStem: 50 100<109.225 590.775> 250 100<109.225 590.775>
LayerCount: 2
Fore
SplineSet
200 700 m 0
 282.843 700 350 632.843 350 550 c 2
 350 150 l 2
 350 67.1572 282.843 0 200 0 c 0
 117.157 0 50 67.1572 50 150 c 2
 50 550 l 2
 50 632.843 117.157 700 200 700 c 0
200 600 m 0
 172.386 600 150 577.614 150 550 c 2
 150 150 l 2
 150 122.386 172.386 100 200 100 c 0
 227.614 100 250 122.386 250 150 c 2
 250 550 l 2
 250 577.614 227.614 600 200 600 c 0
EndSplineSet
Validated: 1
EndChar

StartChar: d
Encoding: 100 100 23
Width: 400
VWidth: 0
Flags: W
HStem: 0 100<122.386 212.117> 400 100<122.386 212.117> 680 20G<250 350>
VStem: 50 100<109.225 390.775> 250 100<0 100 109.225 390.775 400 700>
LayerCount: 2
Fore
SplineSet
250 700 m 0,0,-1
250 400 m 1,1,-1
 250 700 l 1,2,-1
 350 700 l 1,3,-1
 350 0 l 1,4,-1
 250 0 l 1,5,-1
 250 100 l 1,6,-1
 250 44.7715 205.228 0 150 0 c 0,9,-1
 94.7725 0 50 44.7715 50 100 c 2,12,-1
 50 400 l 2,13,-1
 50 455.229 94.7725 500 150 500 c 0,16,-1
 205.228 500 250 455.229 250 400 c 1,1,-1
200 400 m 0,19,-1
 172.386 400 150 377.614 150 350 c 2,22,-1
 150 150 l 2,23,-1
 150 122.386 172.386 100 200 100 c 0,26,-1
 227.614 100 250 122.386 250 150 c 2,29,-1
 250 350 l 2,30,-1
 250 377.614 227.614 400 200 400 c 0,19,-1
EndSplineSet
Validated: 1
EndChar

StartChar: e
Encoding: 101 101 24
Width: 400
VWidth: 0
Flags: W
HStem: 0 100<159.08 240.92> 200 100<150 250> 400 100<159.08 240.92>
VStem: 50 100<109.225 200 300 390.775> 250 100<109.225 150 300 390.775>
CounterMasks: 1 e0
LayerCount: 2
Fore
SplineSet
200 500 m 0
 282.844 500 350 432.843 350 350 c 2
 350 200 l 1
 150 200 l 1
 150 150 l 2
 150 122.386 172.387 100 200 100 c 0
 227.613 100 250 122.386 250 150 c 1
 350 150 l 1
 350 67.1572 282.844 0 200 0 c 0
 117.156 0 50 67.1572 50 150 c 2
 50 350 l 2
 50 432.843 117.156 500 200 500 c 0
200 400 m 0
 172.387 400 150 377.614 150 350 c 2
 150 300 l 1
 250 300 l 1
 250 350 l 2
 250 377.614 227.613 400 200 400 c 0
EndSplineSet
Validated: 1
EndChar

StartChar: ampersand
Encoding: 38 38 25
Width: 500
VWidth: 0
Flags: W
HStem: 0 100<159.225 284.652> 600 100<159.08 240.92>
VStem: 50 100<109.225 200 500 590.775> 250 100<500 590.775> 350 100<173.63 300>
LayerCount: 2
Fore
SplineSet
200 700 m 0
 282.843 700 350 632.843 350 550 c 2
 350 500 l 1
 244.75 342.094 l 1
 346.281 172.875 l 1
 348.707 181.502 350 190.598 350 200 c 2
 350 300 l 1
 450 300 l 1
 450 200 l 2
 450 152.322 433.315 108.553 405.469 74.1875 c 1
 450 0 l 1
 350 0 l 1
 337.844 20.2812 l 1
 311.328 7.29785 281.514 0 250 0 c 2
 200 0 l 2
 117.157 0 50 67.1572 50 150 c 2
 50 200 l 1
 144.75 342.094 l 1
 50 500 l 1
 50 550 l 2
 50 632.843 117.157 700 200 700 c 0
200 600 m 0
 172.386 600 150 577.614 150 550 c 2
 150 500 l 1
 197.375 421.062 l 1
 250 500 l 1
 250 550 l 2
 250 577.614 227.614 600 200 600 c 0
192.094 263.156 m 0
286 106.688 m 1
 192.094 263.156 l 1
 150 200 l 1
 150 150 l 2
 150 122.386 172.386 100 200 100 c 2
 250 100 l 2
 262.696 100 274.826 102.372 286 106.688 c 1
EndSplineSet
Validated: 1
EndChar

StartChar: B
Encoding: 66 66 26
Width: 400
VWidth: 0
Flags: W
HStem: 0 100<150 240.775> 300 100<150 240.775> 600 100<150 240.775>
VStem: 50 100<100 300 400 600> 250 100<109.225 150 150 289.878 410.122 590.775>
CounterMasks: 1 e0
LayerCount: 2
Fore
SplineSet
50 700 m 1
 200 700 l 2
 282.843 700 350 632.843 350 550 c 2
 350 450 l 2
 350 411.572 335.545 376.54 311.781 350 c 1
 335.545 323.46 350 288.428 350 250 c 2
 350 150 l 2
 350 67.1572 282.843 0 200 0 c 2
 50 0 l 1
 50 700 l 1
150 600 m 1
 150 400 l 1
 200 400 l 2
 227.613 400 250 422.386 250 450 c 2
 250 550 l 2
 250 577.614 227.613 600 200 600 c 2
 150 600 l 1
150 300 m 1
 150 100 l 1
 200 100 l 2
 227.613 100 250 122.386 250 150 c 2
 250 250 l 2
 250 277.614 227.613 300 200 300 c 2
 150 300 l 1
EndSplineSet
Validated: 1
EndChar

StartChar: D
Encoding: 68 68 27
Width: 400
VWidth: 0
Flags: W
HStem: 0 100<150 240.775> 600 100<150 240.775>
VStem: 50 100<100 600> 250 100<109.225 150 150 590.775>
LayerCount: 2
Fore
SplineSet
50 700 m 1
 200 700 l 2
 282.843 700 350 632.843 350 550 c 2
 350 150 l 2
 350 67.1572 282.843 0 200 0 c 2
 50 0 l 1
 50 700 l 1
150 600 m 1
 150 100 l 1
 200 100 l 2
 227.613 100 250 122.386 250 150 c 2
 250 550 l 2
 250 577.614 227.613 600 200 600 c 2
 150 600 l 1
EndSplineSet
Validated: 1
EndChar

StartChar: P
Encoding: 80 80 28
Width: 400
VWidth: 0
Flags: W
HStem: 0 21G<50 150> 300 100<150 240.775> 600 100<150 240.775>
VStem: 50 100<0 300 400 600> 250 100<409.225 450 450 590.775>
LayerCount: 2
Fore
SplineSet
50 700 m 1
 200 700 l 2
 282.843 700 350 632.843 350 550 c 2
 350 450 l 2
 350 367.157 282.843 300 200 300 c 2
 150 300 l 1
 150 0 l 1
 50 0 l 1
 50 700 l 1
150 600 m 1
 150 400 l 1
 200 400 l 2
 227.614 400 250 422.386 250 450 c 2
 250 550 l 2
 250 577.614 227.614 600 200 600 c 2
 150 600 l 1
EndSplineSet
Validated: 1
EndChar

StartChar: R
Encoding: 82 82 29
Width: 400
VWidth: 0
Flags: W
HStem: 0 21G<50 150 245 350> 600 100<150 240.775>
VStem: 50 100<0 300 400 600> 250 100<409.225 450 450 590.775>
LayerCount: 2
Fore
SplineSet
50 700 m 1
 200 700 l 2
 282.843 700 350 632.843 350 550 c 2
 350 450 l 2
 350 392.682 317.843 342.877 270.594 317.625 c 1
 350 0 l 1
 250 0 l 1
 175 300 l 1
 150 300 l 1
 150 0 l 1
 50 0 l 1
 50 700 l 1
150 600 m 1
 150 400 l 1
 200 400 l 2
 227.614 400 250 422.386 250 450 c 2
 250 550 l 2
 250 577.614 227.614 600 200 600 c 2
 150 600 l 1
EndSplineSet
Validated: 1
EndChar

StartChar: a
Encoding: 97 97 30
Width: 400
VWidth: 0
Flags: W
HStem: 0 100<126.999 212.117> 200 100<159.225 250> 400 100<159.08 240.92>
VStem: 50 100<109.225 190.775 350 390.775> 250 100<0 100 109.225 200 300 390.775>
CounterMasks: 1 e0
LayerCount: 2
Fore
SplineSet
200 500 m 0
 282.843 500 350 432.843 350 350 c 2
 350 0 l 1
 250 0 l 1
 250 100 l 1
 250 44.7715 205.228 0 150 0 c 0
 94.7725 0 50 44.7715 50 100 c 2
 50 150 l 2
 50 232.843 117.157 300 200 300 c 2
 250 300 l 1
 250 350 l 2
 250 377.614 227.614 400 200 400 c 0
 172.386 400 150 377.614 150 350 c 1
 50 350 l 1
 50 432.843 117.157 500 200 500 c 0
200 200 m 2
 172.386 200 150 177.614 150 150 c 0
 150 122.386 172.386 100 200 100 c 0
 227.614 100 250 122.386 250 150 c 2
 250 200 l 1
 200 200 l 2
EndSplineSet
Validated: 1
EndChar

StartChar: b
Encoding: 98 98 31
Width: 400
VWidth: 0
Flags: W
HStem: 0 100<159.08 240.92> 400 100<187.883 277.614> 680 20G<50 150>
VStem: 50 100<109.225 390.775 400 700 700 700> 250 100<109.225 390.775>
LayerCount: 2
Fore
SplineSet
50 700 m 1
 150 700 l 1
 150 400 l 1
 150 455.229 194.772 500 250 500 c 0
 305.228 500 350 455.229 350 400 c 2
 350 150 l 2
 350 67.1572 282.843 0 200 0 c 0
 117.157 0 50 67.1572 50 150 c 2
 50 700 l 1
200 400 m 0
 172.386 400 150 377.614 150 350 c 2
 150 150 l 2
 150 122.386 172.386 100 200 100 c 0
 227.614 100 250 122.386 250 150 c 2
 250 350 l 2
 250 377.614 227.614 400 200 400 c 0
EndSplineSet
Validated: 1
EndChar

StartChar: i
Encoding: 105 105 32
Width: 200
VWidth: 0
Flags: W
HStem: 0 21G<50 150> 480 20G<50 150> 600 100<50 150>
VStem: 50 100<0 500 600 700>
LayerCount: 2
Fore
SplineSet
50 700 m 1
 150 700 l 1
 150 600 l 1
 50 600 l 1
 50 700 l 1
50 500 m 1
 150 500 l 1
 150 0 l 1
 50 0 l 1
 50 500 l 1
EndSplineSet
Validated: 1
EndChar

StartChar: j
Encoding: 106 106 33
Width: 250
VWidth: 0
Flags: W
HStem: -200 100<50 90.775> 480 20G<100 200> 600 100<100 200>
VStem: 100 100<-90.7753 500 600 700>
LayerCount: 2
Fore
SplineSet
100 700 m 1
 200 700 l 1
 200 600 l 1
 100 600 l 1
 100 700 l 1
100 500 m 1
 200 500 l 1
 200 -50 l 2
 200 -132.843 132.844 -200 50 -200 c 1
 50 -100 l 1
 77.6133 -100 100 -77.6143 100 -50 c 2
 100 500 l 1
EndSplineSet
Validated: 1
EndChar

StartChar: p
Encoding: 112 112 34
Width: 400
VWidth: 0
Flags: W
HStem: -200 21G<50 150> 0 100<187.883 277.614> 400 100<187.883 277.614>
VStem: 50 100<-200 100 109.225 390.775 400 500 500 500> 250 100<109.225 150 150 390.775>
LayerCount: 2
Fore
SplineSet
50 500 m 1
 150 500 l 1
 150 400 l 1
 150 455.229 194.771 500 250 500 c 0
 305.229 500 350 455.229 350 400 c 2
 350 100 l 2
 350 44.7715 305.229 0 250 0 c 0
 194.771 0 150 44.7715 150 100 c 1
 150 -200 l 1
 50 -200 l 1
 50 500 l 1
200 400 m 0
 172.387 400 150 377.614 150 350 c 2
 150 150 l 2
 150 122.386 172.387 100 200 100 c 0
 227.613 100 250 122.386 250 150 c 2
 250 350 l 2
 250 377.614 227.613 400 200 400 c 0
EndSplineSet
Validated: 1
EndChar

StartChar: dieresis
Encoding: 168 168 35
Width: 400
VWidth: 0
Flags: W
HStem: 600 100<50 150 250 350>
VStem: 50 100<600 700> 250 100<600 700>
LayerCount: 2
Fore
SplineSet
50 700 m 1
 150 700 l 1
 150 600 l 1
 50 600 l 1
 50 700 l 1
250 700 m 1
 350 700 l 1
 350 600 l 1
 250 600 l 1
 250 700 l 1
EndSplineSet
Validated: 1
EndChar

StartChar: u
Encoding: 117 117 36
Width: 400
VWidth: 0
Flags: W
HStem: 0 100<122.386 212.117> 480 20G<50 150 250 350>
VStem: 50 100<109.225 500> 250 100<0 100 109.225 150 150 500>
LayerCount: 2
Fore
SplineSet
50 500 m 0,0,-1
50 100 m 2,1,-1
 50 500 l 1,2,-1
 150 500 l 1,3,-1
 150 150 l 2,4,-1
 150 122.386 172.387 100 200 100 c 0,7,-1
 227.613 100 250 122.386 250 150 c 2,10,-1
 250 500 l 1,11,-1
 350 500 l 1,12,-1
 350 0 l 1,13,-1
 250 0 l 1,14,-1
 250 100 l 1,15,-1
 250 44.7715 205.229 0 150 0 c 0,18,-1
 94.7715 0 50 44.7715 50 100 c 2,1,-1
EndSplineSet
Validated: 1
EndChar

StartChar: t
Encoding: 116 116 37
Width: 300
VWidth: 0
Flags: W
VStem: 50 200
LayerCount: 2
Fore
SplineSet
50 500 m 25
 50 400 l 25
 100 400 l 25
 100 0 l 25
 200 0 l 25
 200 400 l 25
 250 400 l 25
 250 500 l 25
 200 500 l 25
 200 700 l 25
 100 600 l 25
 100 500 l 25
 50 500 l 25
EndSplineSet
Validated: 9
EndChar

StartChar: five
Encoding: 53 53 38
Width: 400
VWidth: 0
Flags: W
HStem: 0 100<159.08 240.92> 350 100<159.072 240.92> 600 100<150 300>
VStem: 50 100<109.225 150 300 340.775 441.469 600> 250 100<109.225 340.775>
LayerCount: 2
Fore
SplineSet
50 700 m 0,0,-1
50 300 m 1,1,-1
 50 700 l 1,2,-1
 300 700 l 1,3,-1
 300 600 l 1,4,-1
 150 600 l 1,5,-1
 150 441.469 l 1,6,-1
 165.639 446.997 182.467 450 200 450 c 0,9,-1
 282.843 450 350 382.843 350 300 c 2,12,-1
 350 150 l 2,13,-1
 350 67.1572 282.843 0 200 0 c 0,16,-1
 117.157 0 50 67.1572 50 150 c 1,19,-1
 150 150 l 1,20,-1
 150 122.386 172.386 100 200 100 c 0,23,-1
 227.614 100 250 122.386 250 150 c 2,26,-1
 250 300 l 2,27,-1
 250 327.614 227.614 350 200 350 c 0,30,-1
 172.386 350 150 327.614 150 300 c 1,33,-1
 50 300 l 1,1,-1
EndSplineSet
Validated: 1
EndChar

StartChar: one
Encoding: 49 49 39
Width: 300
VWidth: 0
Flags: W
HStem: 0 21G<150 250> 500 21G<50 70> 680 20G<130 250>
VStem: 150 100<0 600>
LayerCount: 2
Fore
SplineSet
150 600 m 9
 50 500 l 25
 50 600 l 25
 150 700 l 17
 250 700 l 1
 250 0 l 1
 150 0 l 1
 150 600 l 9
150 700 m 0
50 600 m 0
50 500 m 0
150 600 m 0
250 0 m 0
150 700 m 0
EndSplineSet
Validated: 1
EndChar

StartChar: four
Encoding: 52 52 40
Width: 400
VWidth: 0
Flags: W
HStem: 680 20G<150 246>
VStem: 50 300<200 200>
LayerCount: 2
Fore
SplineSet
150 700 m 1
 50 200 l 1
 50 100 l 1
 200 100 l 1
 200 0 l 1
 300 0 l 1
 300 100 l 1
 350 100 l 1
 350 200 l 1
 300 200 l 1
 300 350 l 1
 200 350 l 1
 200 200 l 1
 150 200 l 1
 250 700 l 1
 150 700 l 1
EndSplineSet
Validated: 9
EndChar

StartChar: seven
Encoding: 55 55 41
Width: 400
VWidth: 0
Flags: W
HStem: 0 21G<56.6667 150>
VStem: 50 300
LayerCount: 2
Fore
SplineSet
50 550 m 1
 150 550 l 9
 150 600 l 25
 250 600 l 25
 50 0 l 25
 150 0 l 25
 350 600 l 25
 350 700 l 25
 50 700 l 17
 50 550 l 1
EndSplineSet
Validated: 9
EndChar

StartChar: T
Encoding: 84 84 42
Width: 400
VWidth: 0
Flags: W
VStem: 50 300
LayerCount: 2
Fore
SplineSet
50 700 m 25
 50 600 l 25
 150 600 l 25
 150 0 l 25
 250 0 l 25
 250 600 l 25
 350 600 l 25
 350 700 l 25
 50 700 l 25
EndSplineSet
Validated: 9
EndChar

StartChar: E
Encoding: 69 69 43
Width: 400
VWidth: 0
Flags: W
VStem: 50 300
LayerCount: 2
Fore
SplineSet
50 700 m 25
 50 0 l 25
 350 0 l 25
 350 100 l 25
 150 100 l 25
 150 300 l 25
 250 300 l 25
 250 400 l 25
 150 400 l 25
 150 600 l 25
 350 600 l 25
 350 700 l 25
 50 700 l 25
EndSplineSet
Validated: 9
EndChar

StartChar: K
Encoding: 75 75 44
Width: 400
VWidth: 0
Flags: W
HStem: 0 21G<50 150 242.5 350> 680 20G<50 150 242.5 350>
VStem: 50 100<0 266.656 433.344 700>
LayerCount: 2
Fore
SplineSet
50 700 m 1
 150 700 l 1
 150 433.344 l 1
 250 700 l 1
 350 700 l 1
 218.75 350 l 1
 350 0 l 1
 250 0 l 1
 150 266.656 l 1
 150 0 l 1
 50 0 l 1
 50 700 l 1
EndSplineSet
Validated: 1
EndChar

StartChar: L
Encoding: 76 76 45
Width: 400
VWidth: 0
Flags: W
VStem: 50 300
LayerCount: 2
Fore
SplineSet
50 700 m 25
 50 0 l 25
 350 0 l 25
 350 100 l 25
 150 100 l 25
 150 700 l 25
 50 700 l 25
EndSplineSet
Validated: 9
EndChar

StartChar: M
Encoding: 77 77 46
Width: 600
VWidth: 0
Flags: W
LayerCount: 2
Fore
SplineSet
50 700 m 25
 50 0 l 25
 150 0 l 25
 150 450 l 25
 250 200 l 25
 350 200 l 25
 450 450 l 25
 450 0 l 25
 550 0 l 25
 550 700 l 25
 450 700 l 25
 300 325 l 25
 150 700 l 25
 50 700 l 25
EndSplineSet
Validated: 9
EndChar

StartChar: N
Encoding: 78 78 47
Width: 400
VWidth: 0
Flags: W
HStem: 0 21G<50 150 244.286 350> 680 20G<50 155.714 250 350>
VStem: 50 100<0 350 700 700> 250 100<350 700>
LayerCount: 2
Fore
SplineSet
350 700 m 29
 350 0 l 29
 250 0 l 29
 150 350 l 29
 150 0 l 29
 50 0 l 29
 50 700 l 29
 150 700 l 29
 250 350 l 29
 250 700 l 29
 350 700 l 29
EndSplineSet
Validated: 1
EndChar

StartChar: V
Encoding: 86 86 48
Width: 500
VWidth: 0
Flags: W
HStem: 680 20G<54.2857 150 350 445.714>
LayerCount: 2
Fore
SplineSet
350 700 m 17
 250 233.344 l 1
 150 700 l 1
 50 700 l 1
 200 0 l 1
 300 0 l 9
 450 700 l 25
 350 700 l 17
EndSplineSet
Validated: 9
EndChar

StartChar: W
Encoding: 87 87 49
Width: 800
VWidth: 0
Flags: W
HStem: 680 20G<54.2857 150 650 745.714>
LayerCount: 2
Fore
SplineSet
650 700 m 17
 550 233.344 l 1
 450 700 l 1
 350 700 l 1
 250 233.344 l 1
 150 700 l 1
 50 700 l 1
 200 0 l 9
 300 0 l 25
 400 466.656 l 25
 500 0 l 25
 600 0 l 25
 750 700 l 25
 650 700 l 17
EndSplineSet
Validated: 9
EndChar

StartChar: X
Encoding: 88 88 50
Width: 500
VWidth: 0
Flags: W
HStem: 0 21G<50 158.571 341.429 450> 680 20G<50 158.571 341.429 450>
LayerCount: 2
Fore
SplineSet
200 350 m 17
 50 700 l 1
 150 700 l 1
 250 466.656 l 1
 350 700 l 9
 450 700 l 25
 300 350 l 25
 450 0 l 25
 350 0 l 25
 250 233.344 l 25
 150 0 l 25
 50 0 l 25
 200 350 l 17
EndSplineSet
Validated: 1
EndChar

StartChar: Z
Encoding: 90 90 51
Width: 400
VWidth: 0
Flags: W
VStem: 50 300
LayerCount: 2
Fore
SplineSet
50 700 m 25
 50 600 l 25
 250 600 l 25
 50 100 l 25
 50 0 l 25
 350 0 l 25
 350 100 l 25
 150 100 l 25
 350 600 l 25
 350 700 l 25
 50 700 l 25
EndSplineSet
Validated: 9
EndChar

StartChar: Y
Encoding: 89 89 52
Width: 500
VWidth: 0
Flags: W
HStem: 680 20G<56 150 350 444>
LayerCount: 2
Fore
SplineSet
350 700 m 17
 250 366.656 l 1
 150 700 l 1
 50 700 l 1
 200 200 l 9
 200 0 l 25
 300 0 l 25
 300 200 l 25
 450 700 l 25
 350 700 l 17
EndSplineSet
Validated: 9
EndChar

StartChar: F
Encoding: 70 70 53
Width: 400
VWidth: 0
Flags: W
VStem: 50 300
LayerCount: 2
Fore
SplineSet
50 700 m 25
 50 0 l 25
 150 0 l 25
 150 300 l 25
 250 300 l 25
 250 400 l 25
 150 400 l 25
 150 600 l 25
 350 600 l 25
 350 700 l 25
 50 700 l 25
EndSplineSet
Validated: 9
EndChar

StartChar: I
Encoding: 73 73 54
Width: 200
VWidth: 0
Flags: W
VStem: 50 100
LayerCount: 2
Fore
SplineSet
50 700 m 25
 50 0 l 25
 150 0 l 25
 150 700 l 25
 50 700 l 25
EndSplineSet
Validated: 9
EndChar

StartChar: H
Encoding: 72 72 55
Width: 400
VWidth: 0
Flags: W
LayerCount: 2
Fore
SplineSet
50 700 m 25
 50 0 l 25
 150 0 l 25
 150 300 l 25
 250 300 l 25
 250 0 l 25
 350 0 l 25
 350 700 l 25
 250 700 l 25
 250 400 l 25
 150 400 l 25
 150 700 l 25
 50 700 l 25
EndSplineSet
Validated: 9
EndChar

StartChar: h
Encoding: 104 104 56
Width: 400
VWidth: 0
Flags: W
HStem: 0 21G<50 150 250 350> 400 100<187.883 277.615> 680 20G<50 150>
VStem: 50 100<0 390.775 400 700 700 700> 250 100<0 390.775>
LayerCount: 2
Fore
SplineSet
50 0 m 17
 50 700 l 1
 150 700 l 1
 150 400 l 1
 150 455.229 194.771 500 250 500 c 0
 305.229 500 350 455.229 350 400 c 2
 350 0 l 1
 250 0 l 1
 250 350 l 2
 250 377.614 227.613 400 200 400 c 0
 172.387 400 150 377.614 150 350 c 1
 150 0 l 9
 50 0 l 17
EndSplineSet
Validated: 1
EndChar

StartChar: k
Encoding: 107 107 57
Width: 400
VWidth: 0
Flags: W
HStem: 0 21G<250 340>
LayerCount: 2
Fore
SplineSet
50 700 m 25
 50 0 l 25
 150 0 l 25
 150 200 l 25
 250 0 l 25
 350 0 l 25
 225 250 l 25
 350 500 l 25
 250 500 l 25
 150 300 l 25
 150 700 l 25
 50 700 l 25
EndSplineSet
Validated: 9
EndChar

StartChar: m
Encoding: 109 109 58
Width: 600
VWidth: 0
Flags: W
HStem: 0 21G<50 150 250 350 450 550> 400 100<187.883 277.614 387.883 477.614>
VStem: 50 100<0 390.775 400 500 500 500> 250 100<0 390.775> 450 100<0 390.775>
CounterMasks: 1 38
LayerCount: 2
Fore
SplineSet
50 0 m 17
 50 500 l 1
 150 500 l 1
 150 400 l 1
 150 455.229 194.771 500 250 500 c 0
 305.229 500 350 455.229 350 400 c 1
 350 455.229 394.771 500 450 500 c 0
 505.229 500 550 455.229 550 400 c 2
 550 0 l 1
 450 0 l 1
 450 350 l 2
 450 377.614 427.613 400 400 400 c 0
 372.387 400 350 377.614 350 350 c 2
 350 0 l 1
 250 0 l 1
 250 350 l 2
 250 377.614 227.613 400 200 400 c 0
 172.387 400 150 377.614 150 350 c 1
 150 0 l 9
 50 0 l 17
EndSplineSet
Validated: 1
EndChar

StartChar: n
Encoding: 110 110 59
Width: 400
VWidth: 0
Flags: W
HStem: 0 21G<50 150 250 350> 400 100<187.883 277.614>
VStem: 50 100<0 390.775 400 500 500 500> 250 100<0 390.775>
LayerCount: 2
Fore
SplineSet
50 0 m 17
 50 500 l 1
 150 500 l 1
 150 400 l 1
 150 455.229 194.771 500 250 500 c 0
 305.229 500 350 455.229 350 400 c 2
 350 0 l 1
 250 0 l 1
 250 350 l 2
 250 377.614 227.613 400 200 400 c 0
 172.387 400 150 377.614 150 350 c 1
 150 0 l 9
 50 0 l 17
EndSplineSet
Validated: 1
EndChar

StartChar: r
Encoding: 114 114 60
Width: 400
VWidth: 0
Flags: W
HStem: 0 21G<50 150> 400 100<187.883 277.614>
VStem: 50 100<0 390.775 400 500 500 500> 250 100<350 390.775>
LayerCount: 2
Fore
SplineSet
50 0 m 17
 50 500 l 1
 150 500 l 1
 150 400 l 1
 150 455.229 194.771 500 250 500 c 0
 305.229 500 350 455.229 350 400 c 2
 350 350 l 1
 250 350 l 1
 250 377.614 227.613 400 200 400 c 0
 172.387 400 150 377.614 150 350 c 1
 150 0 l 9
 50 0 l 17
EndSplineSet
Validated: 1
EndChar

StartChar: z
Encoding: 122 122 61
Width: 400
VWidth: 0
Flags: W
VStem: 50 300
LayerCount: 2
Fore
SplineSet
50 500 m 25
 50 400 l 25
 250 400 l 25
 50 100 l 25
 50 0 l 25
 350 0 l 25
 350 100 l 25
 150 100 l 25
 350 400 l 25
 350 500 l 25
 50 500 l 25
EndSplineSet
Validated: 9
EndChar

StartChar: x
Encoding: 120 120 62
Width: 400
VWidth: 0
Flags: W
HStem: 0 21G<58 150 242 350> 480 20G<50 158 242 350>
VStem: 50 300
LayerCount: 2
Fore
SplineSet
350 500 m 25
 250 250 l 25
 350 0 l 25
 250 0 l 25
 200 125 l 25
 150 0 l 25
 50 0 l 25
 150 250 l 25
 50 500 l 25
 150 500 l 25
 200 375 l 25
 250 500 l 25
 350 500 l 25
EndSplineSet
Validated: 1
EndChar

StartChar: v
Encoding: 118 118 63
Width: 400
VWidth: 0
Flags: W
HStem: 480 20G<54 150 250 346>
LayerCount: 2
Fore
SplineSet
50 500 m 25
 150 0 l 25
 250 0 l 25
 350 500 l 25
 250 500 l 25
 200 250 l 25
 150 500 l 25
 50 500 l 25
EndSplineSet
Validated: 9
EndChar

StartChar: w
Encoding: 119 119 64
Width: 600
VWidth: 0
Flags: W
HStem: 480 20G<54 150 450 546>
LayerCount: 2
Fore
SplineSet
50 500 m 25
 150 0 l 25
 250 0 l 25
 300 250 l 25
 350 0 l 25
 450 0 l 25
 550 500 l 25
 450 500 l 25
 400 250 l 25
 350 500 l 25
 250 500 l 25
 200 250 l 25
 150 500 l 25
 50 500 l 25
EndSplineSet
Validated: 9
EndChar

StartChar: question
Encoding: 63 63 65
Width: 400
VWidth: 0
Flags: W
HStem: 500 21G<50 150> 600 100<159.08 240.92>
VStem: 50 100<500 590.775> 150 100<150 300> 250 100<500 590.775>
CounterMasks: 1 38
LayerCount: 2
Fore
SplineSet
150 100 m 25
 150 0 l 25
 250 0 l 25
 250 100 l 25
 150 100 l 25
200 700 m 0
 282.843 700 350 632.843 350 550 c 2
 350 500 l 1
 250 300 l 1
 250 150 l 1
 150 150 l 1
 150 300 l 1
 250 500 l 1
 250 550 l 2
 250 577.614 227.614 600 200 600 c 0
 172.386 600 150 577.614 150 550 c 2
 150 500 l 1
 50 500 l 1
 50 550 l 2
 50 632.843 117.157 700 200 700 c 0
EndSplineSet
Validated: 9
EndChar

StartChar: hyphen
Encoding: 45 45 66
Width: 400
VWidth: 0
Flags: W
HStem: 200 100
VStem: 50 300
LayerCount: 2
Fore
SplineSet
50 300 m 25
 50 200 l 25
 350 200 l 25
 350 300 l 25
 50 300 l 25
EndSplineSet
Validated: 9
EndChar

StartChar: colon
Encoding: 58 58 67
Width: 200
VWidth: 0
Flags: W
VStem: 50 100
LayerCount: 2
Fore
SplineSet
50 100 m 25
 50 0 l 25
 150 0 l 25
 150 100 l 25
 50 100 l 25
50 500 m 25
 50 400 l 25
 150 400 l 25
 150 500 l 25
 50 500 l 25
EndSplineSet
Validated: 9
EndChar

StartChar: semicolon
Encoding: 59 59 68
Width: 200
VWidth: 0
Flags: W
VStem: 50 100<0 100>
LayerCount: 2
Fore
SplineSet
50 500 m 25
 50 400 l 25
 150 400 l 25
 150 500 l 25
 50 500 l 25
50 100 m 25
 150 100 l 25
 150 0 l 25
 50 -100 l 25
 50 100 l 25
EndSplineSet
Validated: 9
EndChar

StartChar: period
Encoding: 46 46 69
Width: 200
VWidth: 0
Flags: W
HStem: 0 100
VStem: 50 100
LayerCount: 2
Fore
SplineSet
50 100 m 25
 50 0 l 25
 150 0 l 25
 150 100 l 25
 50 100 l 25
EndSplineSet
Validated: 9
EndChar

StartChar: comma
Encoding: 44 44 70
Width: 200
VWidth: 0
Flags: W
HStem: -100 200
VStem: 50 100<0 100>
LayerCount: 2
Fore
SplineSet
50 100 m 25
 150 100 l 25
 150 0 l 25
 50 -100 l 25
 50 100 l 25
EndSplineSet
Validated: 1
EndChar

StartChar: quotedbl
Encoding: 34 34 71
Width: 250
VWidth: 0
Flags: W
LayerCount: 2
Fore
SplineSet
150 700 m 25
 150 550 l 25
 200 600 l 25
 200 700 l 25
 150 700 l 25
50 700 m 25
 50 550 l 25
 100 600 l 25
 100 700 l 25
 50 700 l 25
EndSplineSet
Validated: 9
EndChar

StartChar: exclam
Encoding: 33 33 72
Width: 200
VWidth: 0
Flags: W
VStem: 50 100
LayerCount: 2
Fore
SplineSet
50 100 m 29
 50 0 l 29
 150 0 l 29
 150 100 l 29
 50 100 l 29
50 700 m 29
 50 150 l 29
 150 150 l 29
 150 700 l 29
 50 700 l 29
EndSplineSet
Validated: 9
EndChar

StartChar: dotlessi
Encoding: 305 305 79
Width: 200
VWidth: 0
Flags: W
HStem: 0 21G<50 150> 480 20G<50 150>
VStem: 50 100<0 500>
LayerCount: 2
Fore
SplineSet
50 500 m 1
 150 500 l 1
 150 0 l 1
 50 0 l 1
 50 500 l 1
EndSplineSet
Validated: 1
EndChar

StartChar: ae
Encoding: 230 230 86
Width: 1000
VWidth: 0
Flags: W
HStem: 0 100<26172.4 26262.1 26409.2 26490.9> 200 100<26209.2 26300 26400 26500> 400 100<26209.1 26290.3 26409.7 26490.9>
VStem: 26100 100<109.225 190.775 350 390.775> 26300 100<109.225 200 300 390.775> 26500 100<109.225 150 300 390.775>
CounterMasks: 1 fc
LayerCount: 2
Fore
SplineSet
26250 500 m 4
 26288.4 500 26323.5 485.544 26350 461.781 c 5
 26376.5 485.544 26411.6 500 26450 500 c 4
 26532.8 500 26600 432.843 26600 350 c 6
 26600 200 l 5
 26400 200 l 5
 26400 150 l 6
 26400 122.386 26422.4 100 26450 100 c 4
 26477.6 100 26500 122.386 26500 150 c 5
 26600 150 l 5
 26600 67.1572 26532.8 0 26450 0 c 4
 26380.2 0 26321.6 47.6016 26304.8 112.094 c 5
 26300 100 l 5
 26300 44.7715 26255.2 0 26200 0 c 4
 26144.8 0 26100 44.7715 26100 100 c 6
 26100 150 l 6
 26100 232.843 26167.2 300 26250 300 c 6
 26300 300 l 5
 26300 350 l 6
 26300 377.614 26277.6 400 26250 400 c 4
 26222.4 400 26200 377.614 26200 350 c 5
 26100 350 l 5
 26100 432.843 26167.2 500 26250 500 c 4
26450 400 m 4
 26422.4 400 26400 377.614 26400 350 c 6
 26400 300 l 5
 26500 300 l 5
 26500 350 l 6
 26500 377.614 26477.6 400 26450 400 c 4
26250 200 m 4
26300 200 m 5
 26250 200 l 5
 26222.4 200 26200 177.614 26200 150 c 4
 26200 122.386 26222.4 100 26250 100 c 4
 26277.6 100 26300 122.386 26300 150 c 5
 26300 200 l 5
EndSplineSet
Validated: 1
EndChar

StartChar: paragraph
Encoding: 182 182 89
Width: 500
VWidth: 0
Flags: W
HStem: -200 21G<150 250 350 450> 600 100<250 350>
VStem: 50 200<338.262 600 600 600> 150 100<-200 300> 350 100<-200 600>
LayerCount: 2
Fore
SplineSet
150 700 m 2xd8
 450 700 l 1
 450 -200 l 1
 350 -200 l 1
 350 600 l 1
 250 600 l 1xe8
 250 -200 l 1
 150 -200 l 1
 150 300 l 1xd8
 94.7715 300 50 344.772 50 400 c 2
 50 600 l 2xe8
 50 655.229 94.7715 700 150 700 c 2xd8
EndSplineSet
Validated: 1
EndChar

StartChar: uni00B5
Encoding: 181 181 90
Width: 400
VWidth: 0
Flags: W
HStem: -200 21G<50 150> 0 100<159.229 211.726> 480 20G<50 150 250 350>
VStem: 50 100<-200 0 109.225 500> 250 100<0 100 109.225 150 150 500>
LayerCount: 2
Fore
SplineSet
50 -200 m 17
 50 500 l 1
 150 500 l 1
 150 150 l 2
 150 122.386 172.4 100 200 100 c 0
 227.6 100 250 122.386 250 150 c 2
 250 500 l 1
 350 500 l 1
 350 0 l 1
 250 0 l 1
 250 100 l 1
 250 44.7715 205.199 0 150 0 c 1
 150 -200 l 9
 50 -200 l 17
EndSplineSet
Validated: 1
EndChar

StartChar: underscore
Encoding: 95 95 91
Width: 500
VWidth: 0
Flags: W
HStem: -150 100<0 500>
LayerCount: 2
Fore
SplineSet
0 -150 m 5
 0 -50 l 5
 500 -50 l 5
 500 -150 l 5
 0 -150 l 5
EndSplineSet
Validated: 1
EndChar

StartChar: plus
Encoding: 43 43 92
Width: 1000
VWidth: 0
Flags: W
HStem: 100 300
VStem: 29400 300
LayerCount: 2
Fore
SplineSet
29400 300 m 29
 29400 200 l 29
 29500 200 l 29
 29500 100 l 29
 29600 100 l 29
 29600 200 l 29
 29700 200 l 29
 29700 300 l 29
 29600 300 l 29
 29600 400 l 29
 29500 400 l 29
 29500 300 l 29
 29400 300 l 29
EndSplineSet
Validated: 9
EndChar

StartChar: section
Encoding: 167 167 94
Width: 400
VWidth: 0
Flags: W
HStem: -200 100<159.08 240.92> -20 20G<50 150> 50 100<159.225 240.775> 350 100<159.225 240.775> 500 21G<250 350> 600 100<159.08 240.92>
VStem: 50 100<-90.7753 0 159.225 339.878 460.122 590.775> 250 100<-90.7753 39.8777 160.122 340.775 500 590.775>
LayerCount: 2
Fore
SplineSet
200 700 m 0
 282.844 700 350 632.843 350 550 c 2
 350 500 l 1
 250 500 l 1
 250 550 l 2
 250 577.614 227.613 600 200 600 c 0
 172.387 600 150 577.614 150 550 c 2
 150 500 l 2
 150 472.386 172.387 450 200 450 c 0
 282.844 450 350 382.843 350 300 c 2
 350 200 l 2
 350 161.572 335.545 126.54 311.781 100 c 1
 335.545 73.46 350 38.4277 350 0 c 2
 350 -50 l 2
 350 -132.843 282.844 -200 200 -200 c 0
 117.156 -200 50 -132.843 50 -50 c 2
 50 0 l 1
 150 0 l 1
 150 -50 l 2
 150 -77.6143 172.387 -100 200 -100 c 0
 227.613 -100 250 -77.6143 250 -50 c 2
 250 0 l 2
 250 27.6143 227.613 50 200 50 c 0
 117.156 50 50 117.157 50 200 c 2
 50 300 l 2
 50 338.428 64.4551 373.46 88.2188 400 c 1
 64.4551 426.54 50 461.572 50 500 c 2
 50 550 l 2
 50 632.843 117.156 700 200 700 c 0
200 350 m 0
 172.387 350 150 327.614 150 300 c 2
 150 200 l 2
 150 172.386 172.387 150 200 150 c 0
 227.613 150 250 172.386 250 200 c 2
 250 300 l 2
 250 327.614 227.613 350 200 350 c 0
EndSplineSet
Validated: 1
EndChar

StartChar: sterling
Encoding: 163 163 95
Width: 500
VWidth: 0
Flags: W
HStem: 0 100<50 100 200 450> 300 100<50 100 200 350> 500 21G<300 400> 600 100<209.08 290.92>
VStem: 100 100<100 300 400 590.775> 300 100<500 590.775>
LayerCount: 2
Fore
SplineSet
250 700 m 0
 332.844 700 400 632.843 400 550 c 2
 400 500 l 1
 300 500 l 1
 300 550 l 2
 300 577.614 277.613 600 250 600 c 0
 222.387 600 200 577.614 200 550 c 2
 200 400 l 1
 350 400 l 1
 350 300 l 1
 200 300 l 1
 200 100 l 1
 450 100 l 1
 450 0 l 1
 50 0 l 1
 50 100 l 1
 100 100 l 1
 100 300 l 1
 50 300 l 1
 50 400 l 1
 100 400 l 1
 100 550 l 2
 100 632.843 167.156 700 250 700 c 0
EndSplineSet
Validated: 1
EndChar

StartChar: at
Encoding: 64 64 96
Width: 550
VWidth: 0
Flags: W
HStem: -200 100<159.229 250> 0 100<277.015 362.109> 400 100<309.229 400> 600 100<159.229 390.771>
VStem: 50 100<-90.7753 590.775> 200 100<109.225 390.775> 400 100<0 100 109.225 150 150 400 500 590.775>
LayerCount: 2
Fore
SplineSet
200 700 m 2
 350 700 l 2
 432.801 700 500 632.843 500 550 c 2
 500 0 l 1
 400 0 l 1
 400 100 l 1
 400 44.7715 355.199 0 300 0 c 0
 244.801 0 200 44.7715 200 100 c 2
 200 350 l 2
 200 432.843 267.199 500 350 500 c 2
 400 500 l 1
 400 550 l 2
 400 577.614 377.6 600 350 600 c 2
 200 600 l 2
 172.4 600 150 577.614 150 550 c 2
 150 -50 l 2
 150 -77.6143 172.4 -100 200 -100 c 2
 250 -100 l 1
 250 -200 l 1
 200 -200 l 2
 117.199 -200 50 -132.843 50 -50 c 2
 50 550 l 2
 50 632.843 117.199 700 200 700 c 2
400 400 m 1
 350 400 l 1
 322.4 400 300 377.614 300 350 c 2
 300 150 l 2
 300 122.386 322.4 100 350 100 c 0
 377.6 100 400 122.386 400 150 c 1
 400 400 l 1
EndSplineSet
Validated: 1
EndChar

StartChar: divide
Encoding: 247 247 97
Width: 1000
VWidth: 0
Flags: W
HStem: 50 100<30200 30300> 200 100<30100 30400> 350 100<30200 30300>
VStem: 30200 100<50 150 350 450>
CounterMasks: 1 e0
LayerCount: 2
Fore
SplineSet
30100 200 m 5
 30100 300 l 5
 30400 300 l 5
 30400 200 l 5
 30100 200 l 5
30200 350 m 5
 30200 450 l 5
 30300 450 l 5
 30300 350 l 5
 30200 350 l 5
30200 50 m 5
 30200 150 l 5
 30300 150 l 5
 30300 50 l 5
 30200 50 l 5
EndSplineSet
Validated: 1
EndChar

StartChar: asciitilde
Encoding: 126 126 99
Width: 400
VWidth: 0
Flags: W
HStem: 550 150<88.2613 150 188.621 211.379 250 311.739>
VStem: 50 100<550 600 600 600> 250 100<650 700>
LayerCount: 2
Fore
SplineSet
150 700 m 0
 187.016 700 219.336 679.893 236.625 650 c 1
 250 650 l 1
 250 700 l 1
 350 700 l 1
 350 650 l 2
 350 594.771 305.229 550 250 550 c 0
 212.984 550 180.664 570.107 163.375 600 c 1
 150 600 l 1
 150 550 l 1
 50 550 l 1
 50 600 l 2
 50 655.229 94.7715 700 150 700 c 0
EndSplineSet
Validated: 1
EndChar

StartChar: asciicircum
Encoding: 94 94 100
Width: 400
VWidth: 0
Flags: W
HStem: 600 100
VStem: 50 300
LayerCount: 2
Fore
SplineSet
150 700 m 1
 250 700 l 1
 350 600 l 1
 250 600 l 1
 200 650 l 1
 150 600 l 1
 50 600 l 1
 150 700 l 1
EndSplineSet
Validated: 1
EndChar

StartChar: acute
Encoding: 180 180 101
Width: 400
VWidth: 0
Flags: W
HStem: 680 20G<250 330>
LayerCount: 2
Fore
SplineSet
250 700 m 25
 150 600 l 25
 250 600 l 25
 350 700 l 25
 250 700 l 25
EndSplineSet
Validated: 9
EndChar

StartChar: grave
Encoding: 96 96 102
Width: 400
VWidth: 0
Flags: W
HStem: 600 100
LayerCount: 2
Fore
SplineSet
50 700 m 25
 150 600 l 25
 250 600 l 25
 150 700 l 25
 50 700 l 25
EndSplineSet
Validated: 9
EndChar

StartChar: uni0083
Encoding: 131 131 103
Width: 1000
VWidth: 0
Flags: W
HStem: 0 100<22059.2 22100> 400 100<21900 21950 22050 22100> 680 20G<21950 22050>
VStem: 21950 100<109.225 400 500 700>
LayerCount: 2
Fore
SplineSet
22100 0 m 5
 22017.2 0 21950 67.1572 21950 150 c 6
 21950 400 l 5
 21900 400 l 5
 21900 500 l 5
 21950 500 l 5
 21950 700 l 5
 22050 700 l 5
 22050 500 l 5
 22100 500 l 5
 22100 400 l 5
 22050 400 l 5
 22050 150 l 6
 22050 122.386 22072.4 100 22100 100 c 5
 22100 0 l 5
EndSplineSet
Validated: 1
EndChar

StartChar: uni0084
Encoding: 132 132 104
Width: 400
VWidth: 0
Flags: W
HStem: 0 100<200 240.771> 400 100<200 240.771> 600 100<159.09 240.91>
VStem: 50 100<0 590.775> 250 100<109.225 389.878 509.673 590.92>
LayerCount: 2
Fore
SplineSet
200 700 m 0
 282.801 700 350 632.843 350 550 c 0
 350 511.572 335.5 476.54 311.801 450 c 1
 335.5 423.46 350 388.428 350 350 c 2
 350 150 l 2
 350 67.1572 282.801 0 200 0 c 1
 200 100 l 1
 227.6 100 250 122.386 250 150 c 2
 250 350 l 2
 250 377.614 227.6 400 200 400 c 1
 200 500 l 1
 227.6 500 250 522.386 250 550 c 0
 250 577.614 227.6 600 200 600 c 0
 172.4 600 150 577.614 150 550 c 2
 150 0 l 1
 50 0 l 1
 50 550 l 2
 50 632.843 117.199 700 200 700 c 0
EndSplineSet
Validated: 1
EndChar

StartChar: equal
Encoding: 61 61 105
Width: 400
VWidth: 0
Flags: W
VStem: 50 300
LayerCount: 2
Fore
SplineSet
50 200 m 29
 50 100 l 29
 350 100 l 29
 350 200 l 29
 50 200 l 29
50 400 m 29
 50 300 l 29
 350 300 l 29
 350 400 l 29
 50 400 l 29
EndSplineSet
Validated: 9
EndChar

StartChar: percent
Encoding: 37 37 122
Width: 500
VWidth: 0
Flags: W
HStem: 0 200<288.262 411.738> 500 200<88.2621 211.738>
VStem: 50 200<538.261 661.739> 250 200<38.2613 161.739>
LayerCount: 2
Fore
SplineSet
50 0 m 25
 350 700 l 25
 450 700 l 25
 150 0 l 25
 50 0 l 25
250 600 m 0
 250 544.771 205.227 500 150 500 c 0
 94.7734 500 50 544.771 50 600 c 0
 50 655.229 94.7734 700 150 700 c 0
 205.227 700 250 655.229 250 600 c 0
450 100 m 0
 450 44.7715 405.227 0 350 0 c 0
 294.773 0 250 44.7715 250 100 c 0
 250 155.229 294.773 200 350 200 c 0
 405.227 200 450 155.229 450 100 c 0
EndSplineSet
Validated: 1
EndChar

StartChar: breve
Encoding: 728 728 123
Width: 1000
VWidth: 0
Flags: W
HStem: 680 20G<20620 20700 20800 20880>
LayerCount: 2
Fore
SplineSet
20600 700 m 29
 20700 600 l 29
 20800 600 l 29
 20900 700 l 29
 20800 700 l 29
 20750 650 l 29
 20700 700 l 29
 20600 700 l 29
EndSplineSet
Validated: 9
EndChar

StartChar: ring
Encoding: 730 730 124
Width: 400
VWidth: 0
Flags: W
HStem: 550 200<138.262 261.738>
VStem: 100 200<588.261 711.739>
LayerCount: 2
Fore
SplineSet
300 650 m 0
 300 594.771 255.228 550 200 550 c 0
 144.772 550 100 594.771 100 650 c 0
 100 705.229 144.772 750 200 750 c 0
 255.228 750 300 705.229 300 650 c 0
EndSplineSet
Validated: 1
EndChar

StartChar: tilde
Encoding: 732 732 125
Width: 400
VWidth: 0
Flags: W
HStem: 550 150<88.2613 150 188.621 211.379 250 311.739>
VStem: 50 100<550 600 600 600> 250 100<650 700>
LayerCount: 2
Fore
SplineSet
150 700 m 0
 187.016 700 219.336 679.893 236.625 650 c 1
 250 650 l 1
 250 700 l 1
 350 700 l 1
 350 650 l 2
 350 594.771 305.229 550 250 550 c 0
 212.984 550 180.664 570.107 163.375 600 c 1
 150 600 l 1
 150 550 l 1
 50 550 l 1
 50 600 l 2
 50 655.229 94.7715 700 150 700 c 0
EndSplineSet
Validated: 1
EndChar

StartChar: OE
Encoding: 338 338 126
Width: 600
VWidth: 0
Flags: W
HStem: 0 100<159.09 240.932 350 550> 300 100<350 450> 600 100<159.09 240.932 350 550>
VStem: 50 100<109.225 590.775> 250 100<109.225 150 150 300 400 590.775>
CounterMasks: 1 e0
LayerCount: 2
Fore
SplineSet
200 700 m 0
 217.5 700 234.4 696.997 250 691.469 c 1
 250 700 l 1
 550 700 l 1
 550 600 l 1
 350 600 l 1
 350 400 l 1
 450 400 l 1
 450 300 l 1
 350 300 l 1
 350 100 l 1
 550 100 l 1
 550 0 l 1
 250 0 l 1
 250 8.53125 l 1
 234.4 3.00293 217.5 0 200 0 c 0
 117.199 0 50 67.1572 50 150 c 2
 50 550 l 2
 50 632.843 117.199 700 200 700 c 0
200 600 m 0
 172.4 600 150 577.614 150 550 c 2
 150 150 l 2
 150 122.386 172.4 100 200 100 c 0
 227.6 100 250 122.386 250 150 c 2
 250 550 l 2
 250 577.614 227.6 600 200 600 c 0
EndSplineSet
Validated: 1
EndChar

StartChar: AE
Encoding: 198 198 127
Width: 650
VWidth: 0
Flags: W
HStem: 0 100<400 600> 200 100<214.301 300> 300 100<400 500> 600 100<278.6 300 400 600>
VStem: 300 100<100 200 400 600>
LayerCount: 2
Fore
SplineSet
278.6 600 m 25
 214.301 300 l 25
 300 300 l 25
 300 600 l 25
 278.6 600 l 25
200 700 m 25
 600 700 l 25
 600 600 l 25
 400 600 l 25
 400 400 l 25
 500 400 l 25
 500 300 l 25
 400 300 l 25
 400 100 l 25
 600 100 l 25
 600 0 l 25
 300 0 l 25
 300 200 l 25
 192.801 200 l 25
 150 0 l 25
 50 0 l 25
 200 700 l 25
EndSplineSet
Validated: 1
EndChar

StartChar: circumflex
Encoding: 710 710 128
Width: 1000
VWidth: 0
Flags: W
HStem: 600 100
VStem: 19550 300
LayerCount: 2
Fore
SplineSet
19650 700 m 5
 19750 700 l 5
 19850 600 l 5
 19750 600 l 5
 19700 650 l 5
 19650 600 l 5
 19550 600 l 5
 19650 700 l 5
EndSplineSet
Validated: 1
EndChar

StartChar: dotaccent
Encoding: 729 729 129
Width: 400
VWidth: 0
Flags: W
HStem: 600 100<150 250>
VStem: 150 100<600 700>
LayerCount: 2
Fore
SplineSet
150 700 m 5
 250 700 l 5
 250 600 l 5
 150 600 l 5
 150 700 l 5
EndSplineSet
Validated: 1
EndChar

StartChar: braceleft
Encoding: 123 123 134
Width: 300
VWidth: 0
Flags: W
HStem: -150 100<209.225 250> 250 100<50 90.775> 650 100<209.225 250>
VStem: 100 100<-40.7753 239.878 360.122 640.775>
CounterMasks: 1 e0
LayerCount: 2
Fore
SplineSet
250 750 m 1
 250 650 l 1
 222.387 650 200 627.614 200 600 c 2
 200 400 l 2
 200 361.572 185.543 326.54 161.781 300 c 1
 185.543 273.46 200 238.428 200 200 c 2
 200 0 l 2
 200 -27.6143 222.387 -50 250 -50 c 1
 250 -150 l 1
 167.156 -150 100 -82.8428 100 0 c 2
 100 200 l 2
 100 227.614 77.6133 250 50 250 c 1
 50 350 l 1
 77.6133 350 100 372.386 100 400 c 2
 100 600 l 2
 100 682.843 167.156 750 250 750 c 1
EndSplineSet
Validated: 1
EndChar

StartChar: braceright
Encoding: 125 125 135
Width: 300
VWidth: 0
Flags: W
HStem: -150 100<50 90.775> 250 100<209.225 250> 650 100<50 90.775>
VStem: 100 100<-40.7753 239.878 360.122 640.775>
CounterMasks: 1 e0
LayerCount: 2
Fore
SplineSet
50 750 m 1
 132.844 750 200 682.843 200 600 c 2
 200 400 l 2
 200 372.386 222.387 350 250 350 c 1
 250 250 l 1
 222.387 250 200 227.614 200 200 c 2
 200 0 l 2
 200 -82.8428 132.844 -150 50 -150 c 1
 50 -50 l 1
 77.6133 -50 100 -27.6143 100 0 c 2
 100 200 l 2
 100 238.428 114.457 273.46 138.219 300 c 1
 114.457 326.54 100 361.572 100 400 c 2
 100 600 l 2
 100 627.614 77.6133 650 50 650 c 1
 50 750 l 1
EndSplineSet
Validated: 1
EndChar

StartChar: bracketleft
Encoding: 91 91 136
Width: 400
VWidth: 0
Flags: W
HStem: -150 100<18722 18772> 650 100<18722 18772>
VStem: 18622 100<-50 650> 18622 150<-150 -50 650 750>
LayerCount: 2
Fore
SplineSet
18772 -150 m 29xd0
 18622 -150 l 29
 18622 750 l 29
 18772 750 l 29
 18772 650 l 29xd0
 18722 650 l 29
 18722 -50 l 29xe0
 18772 -50 l 29
 18772 -150 l 29xd0
EndSplineSet
Validated: 1
EndChar

StartChar: bracketright
Encoding: 93 93 137
Width: 400
VWidth: 0
Flags: W
VStem: 18822 150
LayerCount: 2
Fore
SplineSet
18972 750 m 29
 18822 750 l 29
 18822 650 l 29
 18872 650 l 29
 18872 -50 l 29
 18822 -50 l 29
 18822 -150 l 29
 18972 -150 l 29
 18972 750 l 29
EndSplineSet
Validated: 9
EndChar

StartChar: quotesingle
Encoding: 39 39 150
Width: 250
VWidth: 0
Flags: W
VStem: 50 50
LayerCount: 2
Fore
SplineSet
50 700 m 25
 50 550 l 25
 100 600 l 25
 100 700 l 25
 50 700 l 25
EndSplineSet
Validated: 9
EndChar

StartChar: endash
Encoding: 8211 8211 155
Width: 500
VWidth: 0
Flags: W
HStem: 200 100<0 500>
LayerCount: 2
Fore
SplineSet
0 200 m 1
 0 300 l 1
 500 300 l 1
 500 200 l 1
 0 200 l 1
EndSplineSet
Validated: 1
EndChar

StartChar: emdash
Encoding: 8212 8212 156
Width: 1000
VWidth: 0
Flags: W
HStem: 200 100
LayerCount: 2
Fore
SplineSet
0 300 m 25
 0 200 l 25
 1000 200 l 25
 1000 300 l 25
 0 300 l 25
EndSplineSet
Validated: 9
EndChar

StartChar: oe
Encoding: 339 339 157
Width: 600
VWidth: 0
Flags: W
HStem: 0 100<159.08 240.327 359.673 440.92> 200 100<350 450> 400 100<159.08 240.327 359.673 440.92>
VStem: 50 100<109.225 390.775> 250 100<109.225 200 300 390.775> 450 100<109.225 150 300 390.775>
CounterMasks: 1 fc
LayerCount: 2
Fore
SplineSet
200 500 m 0
 238.428 500 273.461 485.544 300 461.781 c 1
 326.539 485.544 361.572 500 400 500 c 0
 482.844 500 550 432.843 550 350 c 2
 550 200 l 1
 350 200 l 1
 350 150 l 2
 350 122.386 372.387 100 400 100 c 0
 427.613 100 450 122.386 450 150 c 1
 550 150 l 1
 550 67.1572 482.844 0 400 0 c 0
 361.572 0 326.539 14.4561 300 38.2188 c 1
 273.461 14.4561 238.428 0 200 0 c 0
 117.156 0 50 67.1572 50 150 c 2
 50 350 l 2
 50 432.843 117.156 500 200 500 c 0
200 400 m 0
 172.387 400 150 377.614 150 350 c 2
 150 150 l 2
 150 122.386 172.387 100 200 100 c 0
 227.613 100 250 122.386 250 150 c 2
 250 350 l 2
 250 377.614 227.613 400 200 400 c 0
400 400 m 0
 372.387 400 350 377.614 350 350 c 2
 350 300 l 1
 450 300 l 1
 450 350 l 2
 450 377.614 427.613 400 400 400 c 0
EndSplineSet
Validated: 1
EndChar

StartChar: hungarumlaut
Encoding: 733 733 160
Width: 500
VWidth: 0
Flags: W
HStem: 600 100
LayerCount: 2
Fore
SplineSet
150 700 m 1
 250 700 l 1
 150 600 l 1
 50 600 l 1
 150 700 l 1
350 700 m 1
 450 700 l 1
 350 600 l 1
 250 600 l 1
 350 700 l 1
EndSplineSet
Validated: 1
EndChar

StartChar: cedilla
Encoding: 184 184 161
Width: 400
VWidth: 0
Flags: W
HStem: -200 100<100 190.775>
VStem: 200 100<-90.7753 -38.2613>
LayerCount: 2
Fore
SplineSet
200 -50 m 2
 200 0 l 1
 255.229 0 300 -44.7715 300 -100 c 0
 300 -155.229 255.229 -200 200 -200 c 2
 100 -200 l 1
 100 -100 l 1
 150 -100 l 2
 177.613 -100 200 -77.6143 200 -50 c 2
EndSplineSet
Validated: 1
EndChar

StartChar: uni00B9
Encoding: 185 185 162
Width: 1000
VWidth: 0
Flags: W
HStem: 550 100<16109.1 16190.9> 680 20G<16000 16100 16200 16300>
VStem: 16000 100<659.225 700> 16200 100<659.225 700>
LayerCount: 2
Fore
SplineSet
16000 700 m 5
 16100 700 l 5
 16100 672.386 16122.4 650 16150 650 c 4
 16177.6 650 16200 672.386 16200 700 c 5
 16300 700 l 5
 16300 617.157 16232.8 550 16150 550 c 4
 16067.2 550 16000 617.157 16000 700 c 5
EndSplineSet
Validated: 1
EndChar

StartChar: oslash
Encoding: 248 248 167
Width: 400
VWidth: 0
Flags: W
HStem: 0 100<190.678 240.92> 400 100<159.08 209.322>
VStem: 50 100<250 390.775> 250 100<109.225 150 150 250>
LayerCount: 2
Fore
SplineSet
200 500 m 0
 216.414 500 232.219 497.372 247 492.5 c 1
 250 500 l 1
 350 500 l 1
 323.844 434.625 l 1
 340.332 410.537 350 381.396 350 350 c 2
 350 150 l 2
 350 67.1572 282.844 0 200 0 c 0
 183.586 0 167.781 2.62793 153 7.5 c 1
 150 0 l 1
 50 0 l 1
 76.1562 65.375 l 1
 59.668 89.4629 50 118.604 50 150 c 2
 50 350 l 2
 50 432.843 117.156 500 200 500 c 0
200 400 m 0
 172.387 400 150 377.614 150 350 c 2
 150 250 l 1
 209.625 399.062 l 1
 206.508 399.671 203.297 400 200 400 c 0
250 250 m 1
 190.375 100.938 l 1
 193.492 100.329 196.703 100 200 100 c 0
 227.613 100 250 122.386 250 150 c 2
 250 250 l 1
EndSplineSet
Validated: 1
EndChar

StartChar: Oslash
Encoding: 216 216 168
Width: 400
VWidth: 0
Flags: W
HStem: 0 100<180.029 240.92> 600 100<159.08 219.971>
VStem: 50 100<0 0 350 590.775> 250 100<109.225 150 150 350 700 700>
LayerCount: 2
Fore
SplineSet
200 700 m 0
 216.699 700 232.777 697.286 247.781 692.25 c 1
 250 700 l 1
 350 700 l 1
 329 626.531 l 1
 342.324 604.122 350 577.963 350 550 c 2
 350 150 l 2
 350 67.1572 282.844 0 200 0 c 0
 183.301 0 167.223 2.71387 152.219 7.75 c 1
 150 0 l 1
 50 0 l 1
 71 73.4688 l 1
 57.6758 95.8779 50 122.037 50 150 c 2
 50 550 l 2
 50 632.843 117.156 700 200 700 c 0
200 600 m 0
 172.387 600 150 577.614 150 550 c 2
 150 350 l 1
 220.219 595.719 l 1
 214.035 598.455 207.195 600 200 600 c 0
250 350 m 1
 179.781 104.281 l 1
 185.965 101.545 192.805 100 200 100 c 0
 227.613 100 250 122.386 250 150 c 2
 250 350 l 1
EndSplineSet
Validated: 1
EndChar

StartChar: dollar
Encoding: 36 36 169
Width: 400
VWidth: 0
Flags: W
HStem: -50 150<159.225 240.775> 300 100<159.225 240.775> 500 21G<250 350> 600 150<159.225 240.775>
VStem: 50 100<109.225 200 409.225 590.775> 150 100<-50 8.53125 691.469 750> 250 100<109.225 290.775 500 590.775>
CounterMasks: 1 0e
LayerCount: 2
Fore
SplineSet
150 750 m 1
 250 750 l 1
 250 691.469 l 1
 308.258 670.876 350 615.311 350 550 c 2
 350 500 l 1
 250 500 l 1
 250 550 l 2
 250 577.614 227.613 600 200 600 c 0
 172.387 600 150 577.614 150 550 c 2
 150 450 l 2
 150 422.386 172.387 400 200 400 c 0
 282.844 400 350 332.843 350 250 c 2
 350 150 l 2
 350 84.6895 308.258 29.124 250 8.53125 c 1
 250 -50 l 1
 150 -50 l 1
 150 8.53125 l 1
 91.7422 29.124 50 84.6895 50 150 c 2
 50 200 l 1
 150 200 l 1
 150 150 l 2
 150 122.386 172.387 100 200 100 c 0
 227.613 100 250 122.386 250 150 c 2
 250 250 l 2
 250 277.614 227.613 300 200 300 c 0
 117.156 300 50 367.157 50 450 c 2
 50 550 l 2
 50 615.311 91.7422 670.876 150 691.469 c 1
 150 750 l 1
EndSplineSet
Validated: 1
EndChar

StartChar: slash
Encoding: 47 47 170
Width: 400
VWidth: 0
Flags: W
HStem: 0 21G<55.7143 150> 680 20G<250 344.286>
LayerCount: 2
Fore
SplineSet
250 700 m 25
 50 0 l 25
 150 0 l 25
 350 700 l 25
 250 700 l 25
EndSplineSet
Validated: 9
EndChar

StartChar: Eth
Encoding: 208 208 171
Width: 450
VWidth: 0
Flags: W
HStem: 0 100<200 290.775> 300 100<50 100 200 250> 600 100<200 290.775>
VStem: 100 100<100 300 400 600> 300 100<109.225 150 150 590.775>
CounterMasks: 1 e0
LayerCount: 2
Fore
SplineSet
100 700 m 1
 250 700 l 2
 332.844 700 400 632.843 400 550 c 2
 400 150 l 2
 400 67.1572 332.844 0 250 0 c 2
 100 0 l 1
 100 300 l 1
 50 300 l 1
 50 400 l 1
 100 400 l 1
 100 700 l 1
200 600 m 1
 200 400 l 1
 250 400 l 1
 250 300 l 1
 200 300 l 1
 200 100 l 1
 250 100 l 2
 277.613 100 300 122.386 300 150 c 2
 300 550 l 2
 300 577.614 277.613 600 250 600 c 2
 200 600 l 1
EndSplineSet
Validated: 1
EndChar

StartChar: greater
Encoding: 62 62 172
Width: 400
VWidth: 0
Flags: W
HStem: 100 300
VStem: 50 300
LayerCount: 2
Fore
SplineSet
50 400 m 1
 350 300 l 1
 350 200 l 1
 50 100 l 1
 50 200 l 1
 200 250 l 1
 50 300 l 1
 50 400 l 1
EndSplineSet
Validated: 1
EndChar

StartChar: ordmasculine
Encoding: 186 186 173
Width: 400
VWidth: 0
Flags: W
HStem: -200 100<209.225 250>
VStem: 100 100<-90.7753 -38.2613>
LayerCount: 2
Fore
SplineSet
200 -50 m 6
 200 0 l 5
 144.771 0 100 -44.7715 100 -100 c 4
 100 -155.229 144.771 -200 200 -200 c 6
 300 -200 l 5
 300 -100 l 5
 250 -100 l 6
 222.387 -100 200 -77.6143 200 -50 c 6
EndSplineSet
Validated: 9
EndChar

StartChar: brokenbar
Encoding: 166 166 174
Width: 200
VWidth: 0
Flags: W
VStem: 50 100<-150 200 400 750>
LayerCount: 2
Fore
SplineSet
50 750 m 1
 150 750 l 1
 150 400 l 1
 50 400 l 1
 50 750 l 1
50 200 m 1
 150 200 l 1
 150 -150 l 1
 50 -150 l 1
 50 200 l 1
EndSplineSet
Validated: 1
EndChar

StartChar: bar
Encoding: 124 124 175
Width: 200
VWidth: 0
Flags: W
VStem: 50 100<-150 750>
LayerCount: 2
Fore
SplineSet
50 750 m 1
 150 750 l 1
 150 -150 l 1
 50 -150 l 1
 50 750 l 1
EndSplineSet
Validated: 1
EndChar

StartChar: backslash
Encoding: 92 92 176
Width: 400
VWidth: 0
Flags: W
HStem: 0 21G<244.286 350> 680 20G<50 155.714>
VStem: 50 300
LayerCount: 2
Fore
SplineSet
150 700 m 25
 350 0 l 25
 250 0 l 25
 50 700 l 25
 150 700 l 25
EndSplineSet
Validated: 1
EndChar

StartChar: less
Encoding: 60 60 177
Width: 400
VWidth: 0
Flags: W
LayerCount: 2
Fore
SplineSet
350 400 m 1
 50 300 l 1
 50 200 l 1
 350 100 l 1
 350 200 l 1
 200 250 l 1
 350 300 l 1
 350 400 l 1
EndSplineSet
Validated: 9
EndChar

StartChar: macron
Encoding: 175 175 178
Width: 400
VWidth: 0
Flags: W
HStem: 600 100<50 150 250 350>
VStem: 50 100<600 700> 250 100<600 700>
LayerCount: 2
Fore
SplineSet
350 600 m 1
 350 700 l 1
 50 700 l 1
 50 600 l 1
 350 600 l 1
EndSplineSet
Validated: 9
EndChar

StartChar: perthousand
Encoding: 8240 8240 179
Width: 750
VWidth: 0
Flags: W
HStem: 0 200<288.262 411.738 538.262 661.738> 500 200<88.2621 211.738>
VStem: 50 200<538.261 661.739> 250 200<38.2613 161.739> 500 200<38.2613 161.739>
LayerCount: 2
Fore
SplineSet
50 0 m 25
 350 700 l 25
 450 700 l 25
 150 0 l 25
 50 0 l 25
250 600 m 0
 250 544.771 205.227 500 150 500 c 0
 94.7734 500 50 544.771 50 600 c 0
 50 655.229 94.7734 700 150 700 c 0
 205.227 700 250 655.229 250 600 c 0
450 100 m 0
 450 44.7715 405.227 0 350 0 c 0
 294.773 0 250 44.7715 250 100 c 0
 250 155.229 294.773 200 350 200 c 0
 405.227 200 450 155.229 450 100 c 0
700 100 m 0
 700 44.7715 655.227 0 600 0 c 0
 544.773 0 500 44.7715 500 100 c 0
 500 155.229 544.773 200 600 200 c 0
 655.227 200 700 155.229 700 100 c 0
EndSplineSet
Validated: 1
EndChar

StartChar: cent
Encoding: 162 162 181
Width: 400
VWidth: 0
Flags: W
HStem: 0 150<159.225 240.775> 450 150<159.225 240.775>
VStem: 50 100<159.225 440.775> 150 100<0 58.5312 541.469 600> 250 100<159.225 200 400 440.775>
CounterMasks: 1 38
LayerCount: 2
Fore
SplineSet
150 600 m 1
 250 600 l 1
 250 541.469 l 1
 308.258 520.876 350 465.311 350 400 c 1
 250 400 l 1
 250 427.614 227.613 450 200 450 c 0
 172.387 450 150 427.614 150 400 c 2
 150 200 l 2
 150 172.386 172.387 150 200 150 c 0
 227.613 150 250 172.386 250 200 c 1
 350 200 l 1
 350 134.689 308.258 79.124 250 58.5312 c 1
 250 0 l 1
 150 0 l 1
 150 58.5312 l 1
 91.7422 79.124 50 134.689 50 200 c 2
 50 400 l 2
 50 465.311 91.7422 520.876 150 541.469 c 1
 150 600 l 1
EndSplineSet
Validated: 1
EndChar
